<svg width="350" height="154" viewBox="0 0 350 154" fill="none" xmlns="http://www.w3.org/2000/svg">
    <path fill="#FFF2F2" d="M0 0h350v154H0z"/>
    <path opacity=".4" d="M321.898 89.267c-2.781-8.653-11.827-11.651-19.307-11.228-6.996.395-9.615 3.048-11.788 5.25-1.14 1.153-2.156 2.183-3.617 2.699-3.623 1.279-6.949 10.62-5.269 14.167 1.147 2.423.758 3.486.176 5.077-.27.738-.582 1.589-.801 2.743-.692 3.64.691 7.135 2.864 8.472 1.452.893 1.89 1.533 2.522 2.456.314.458.675.987 1.233 1.651 1.679 2 4.939 3.509 9.188 2.427 3.051-.778 4.415-.795 6.506-.669L303 144h3l-.602-21.574c.356.022.737.043 1.148.063 1.4.066 2.581.488 3.747.905 2.353.84 4.645 1.659 8.542-.512 5.829-3.247 7.113-9.248 7.311-11.905.065-.868.425-1.637.841-2.526.856-1.829 1.949-4.162 1.184-8.904-.736-4.559-2.568-6.155-4.105-7.494-.939-.819-1.768-1.541-2.168-2.786z" fill="#FFCDD5"/>
    <path opacity=".4" fill-rule="evenodd" clip-rule="evenodd" d="M109.703 72.396a6.513 6.513 0 0 1 4.243 11.921 5.775 5.775 0 0 1 2.382 4.678 5.784 5.784 0 0 1 2.689 10.905 5.169 5.169 0 0 1-5.908 8.47l-8.914 12.822.523 23.086h-3.852l.713-31.482-2.047-2.945a8.491 8.491 0 0 1-12.85-2.636l-.037.03a6.686 6.686 0 0 1-9.376-1.464 6.68 6.68 0 0 1 1.395-9.253 4.643 4.643 0 0 1-.646-2.362 4.663 4.663 0 0 1 4.354-4.65 7.708 7.708 0 0 1 4.776-5.783 6.513 6.513 0 0 1 4.185-8.255 3.628 3.628 0 0 1-.016-.314 3.71 3.71 0 0 1 3.711-3.71c.71 0 1.372.203 1.936.549A6.51 6.51 0 0 1 103.293 67a6.51 6.51 0 0 1 6.41 5.396zm-9.292 36.633 1.217 1.62.053-2.341a5.345 5.345 0 0 1-.506-.227 8.608 8.608 0 0 1-.764.948zm3.731 9.793-.23-10.154c.16-.008.318-.023.474-.044a5.637 5.637 0 0 0 4.146 1.812 5.62 5.62 0 0 0 2.264-.474l-6.654 8.86z" fill="#FFCDD5"/>
    <path d="M108.54 56.26a4.687 4.687 0 0 0-.917-2.427 4.509 4.509 0 0 0-2.05-1.533 4.392 4.392 0 0 0-2.533-.15c-.841.2-1.608.643-2.21 1.278a13.384 13.384 0 0 0-3-7.697c-1.5-1.308-7.92-4.818-15 4.618-1.035-5.726-9.24-4.079-11.775 2.633-6-1.016-10.05 1.539-11.055 5.018h54c-.54-1.77-3.315-2.77-5.46-1.74zM113 83h54v61h-54z" fill="#fff"/>
    <path d="m139 53-30 30h60l-30-30z" fill="#30414D"/>
    <path d="M139 55.4 111.4 83h55.2L139 55.4z" fill="#fff"/>
    <path d="M139 53h110l28 28H167l-28-28z" fill="#157EB4"/>
    <path d="M139 53h42l28 28h-42l-28-28z" fill="#0A6D99"/>
    <path d="M167 81h42v2h-42v-2zM249 53l30 30h-60l30-30z" fill="#30414D"/>
    <path d="M249 55.4 276.6 83h-55.2L249 55.4zM167 83h42v61h-42z" fill="#FEDADA"/>
    <path d="M167 83h42v23h-18l-24-23z" fill="#FFCDD5"/>
    <path fill="#0A6D99" d="M128 112h14v30h-14z"/>
    <path fill="#A4D8F3" d="M127 112h1v30h-1z"/>
    <path fill="#fff" d="M126 142h16v1h-16z"/>
    <path fill="#157EB4" d="M98 143h44v1H98z"/>
    <path fill="#30414D" d="M140 142h2v1h-2zM137 143h5v1h-5zM131 118.5a3.5 3.5 0 1 1 7 0V129h-7v-10.5z"/>
    <path d="M132 118a3 3 0 1 1 6 0v11h-6v-11z" fill="#157EB4"/>
    <path fill="#637482" d="M128 96h23v1h-23z"/>
    <path fill="#637482" d="M128 79h1v18h-1z"/>
    <path fill="#FEDADA" d="M127 79h1v18h-1z"/>
    <path fill="#637482" d="M139 79h1v18h-1zM150 79h1v18h-1z"/>
    <path fill="#FEDADA" d="M149 97h2v2h-2z"/>
    <path fill="#fff" d="M126 97h23v2h-23z"/>
    <path fill="#000" fill-opacity=".1" d="M126 99h25v1h-25z"/>
    <path fill="#637482" d="M128 79h23v1h-23z"/>
    <path fill="#FFEAC2" d="M129 84h10v12h-10zM140 84h10v12h-10z"/>
    <g opacity=".5" fill="#FFDFA7">
        <path d="M136 81.5c0 4.665-2.161 8.682-5.266 10.485.949 1.109 1.712 2.476 2.222 4.015H129V80h6.925c.049.49.075.992.075 1.5zM142 81.5c0 4.665 2.469 8.682 6.018 10.485A11.597 11.597 0 0 0 145.479 96H150V80h-7.914c-.057.49-.086.992-.086 1.5z" style="mix-blend-mode:multiply"/>
    </g>
    <path fill="#FFC973" style="mix-blend-mode:multiply" d="M129 80h10v4h-10zM140 80h10v4h-10z" opacity=".7"/>
    <path d="M151 79v2h-22l-2-2h24z" fill="#000" fill-opacity=".3"/>
    <path fill="#fff" d="M209 83h12v21h-12z"/>
    <path fill="#FEDADA" d="M221 83h56v21h-56z"/>
    <path fill="#30414D" d="M260 96h-23v1h23z"/>
    <path fill="#30414D" d="M260 79h-1v18h1z"/>
    <path fill="#FFF2F2" d="M261 79h-1v18h1z"/>
    <path fill="#30414D" d="M249 79h-1v18h1zM238 79h-1v18h1z"/>
    <path fill="#FFF2F2" d="M239 97h-2v2h2z"/>
    <path fill="#FEDADA" d="M262 97h-23v2h23z"/>
    <path fill="#000" fill-opacity=".1" d="M237 99h25v1h-25z"/>
    <path fill="#30414D" d="M260 79h-23v1h23z"/>
    <path fill="#FFEAC2" d="M259 84h-10v12h10zM248 84h-10v12h10z"/>
    <path opacity=".7" fill="#FFC973" d="M259 80h-10v4h10zM248 80h-10v4h10z"/>
    <path d="M237 79v2h22l2-2h-24z" fill="#000" fill-opacity=".3"/>
    <g opacity=".5" fill="#FFDBA0">
        <path d="M245 81.5c0 4.665-2.161 8.682-5.266 10.485.949 1.109 1.712 2.476 2.222 4.015H238V80h6.925c.049.49.075.992.075 1.5zM251 81.5c0 4.665 2.469 8.682 6.018 10.485A11.597 11.597 0 0 0 254.479 96H259V80h-7.914c-.057.49-.086.992-.086 1.5z" style="mix-blend-mode:multiply"/>
    </g>
    <path fill="#30414D" d="M122 106h20v3h-20z"/>
    <path fill="#157EB4" d="M101 106h21v3h-21z"/>
    <path fill="#30414D" d="M122 109h2v34h-2zM104 109h2v34h-2z"/>
    <path fill="#157EB4" d="M103 109h1v34h-1z"/>
    <path fill="#A4D8F3" d="M106 132h15v2h-15zM108 134h1v9h-1zM111 134h1v9h-1zM114 134h1v9h-1zM117 134h1v9h-1zM120 134h1v9h-1zM107 134h1v9h-1zM110 134h1v9h-1zM113 134h1v9h-1zM116 134h1v9h-1zM119 134h1v9h-1z"/>
    <path fill="#000" fill-opacity=".3" d="M121 109h1v1h-1zM103 109h1v1h-1z"/>
    <path fill="#465864" d="M209 81h12v2h-12z"/>
    <path d="m113 81.4-1.6 1.6h1.6v-1.6z" fill="#30414D"/>
    <path fill="#157EB4" d="M132 131h6v8h-6z"/>
    <path fill="#30414D" d="M132 131h-1v8h1z"/>
    <circle cx="150.5" cy="140.5" r="3.5" fill="#FEDADA"/>
    <circle cx="155.5" cy="138.5" r="4.5" fill="#FEDADA"/>
    <circle cx="160.5" cy="139.5" r="3.5" fill="#FEDADA"/>
    <circle cx="163.5" cy="140.5" r="2.5" fill="#FEDADA"/>
    <path d="M144 144a2 2 0 0 1 2-2h19a2 2 0 0 1 2 2h-23z" fill="#FEDADA"/>
    <circle cx="183" cy="140" r="3" fill="#FFC5D1"/>
    <circle cx="170" cy="141" r="2" fill="#FFC5D1"/>
    <circle cx="178.5" cy="138.5" r="4.5" fill="#FFC5D1"/>
    <circle cx="173.5" cy="139.5" r="3.5" fill="#FFC5D1"/>
    <path d="M167 144a2 2 0 0 1 2-2h16a2 2 0 0 1 2 2h-20z" fill="#FFC5D1"/>
    <path fill="#fff" d="M189 107h45v37h-45z"/>
    <path fill="#465864" d="M189 104h45v3h-45z"/>
    <path fill="#30414D" d="M234 104h60v3h-60z"/>
    <path fill="#FEDADA" d="M234 107h60v37h-60z"/>
    <path fill="#FEDADA" d="M272 114h1v15h-1z"/>
    <path fill="#FFC974" d="M264 115h7v13h-7z"/>
    <path fill="#FFEAC2" d="M264 119h7v9h-7z"/>
    <path fill-rule="evenodd" clip-rule="evenodd" d="M263 114v15h9v-15h-9zm8 14v-13h-7v13h7z" fill="#30414D"/>
    <path d="M272 114v2h-9v-2h9z" fill="#000" fill-opacity=".3"/>
    <circle cx="290.5" cy="139.5" r="3.5" fill="#FFC5D1"/>
    <circle cx="286.5" cy="140.5" r="2.5" fill="#FFC5D1"/>
    <circle cx="294.5" cy="140.5" r="2.5" fill="#FFC5D1"/>
    <circle cx="249" cy="137" r="7" fill="#FFC5D1"/>
    <circle cx="241.5" cy="140.5" r="3.5" fill="#FFC5D1"/>
    <circle cx="257" cy="138" r="5" fill="#FFC5D1"/>
    <circle cx="263" cy="140" r="4" fill="#FFC5D1"/>
    <circle cx="282" cy="141" r="3" fill="#FFC5D1"/>
    <path d="M234 144a2 2 0 0 1 2-2h72a2 2 0 0 1 2 2h-76z" fill="#FFC5D1"/>
    <path fill="#fff" d="M192 109h38v3h-38z"/>
    <path fill="#FEDADA" d="M228 109h2v3h-2z"/>
    <path fill="#B9CAD2" d="M196 112h34v32h-34z"/>
    <path fill="#000" fill-opacity=".1" d="M196 114h34v1h-34zM196 117h34v1h-34zM196 120h34v1h-34zM196 123h34v1h-34zM196 126h34v1h-34zM196 129h34v1h-34zM196 132h34v1h-34zM196 135h34v1h-34zM196 138h34v1h-34zM196 141h34v1h-34z"/>
    <path fill="#A1AFB6" d="M194 112h2v32h-2z"/>
    <path d="M230 112v3h-34l-2-3h36z" fill="#000" fill-opacity=".15"/>
    <path fill="#419DCC" d="M124 132h18v2h-18zM126 134h1v9h-1zM129 134h1v9h-1zM132 134h1v9h-1zM135 134h1v9h-1zM138 134h1v9h-1zM125 134h1v9h-1zM128 134h1v9h-1zM131 134h1v9h-1zM134 134h1v9h-1zM137 134h1v9h-1z"/>
    <path fill="#157EB4" d="M121 109h1v34h-1z"/>
    <path fill="#637482" d="M148 129h12v1h-12z"/>
    <path fill="#637482" d="M148 112h1v18h-1z"/>
    <path fill="#FEDADA" d="M147 112h1v18h-1z"/>
    <path fill="#637482" d="M159 112h1v18h-1z"/>
    <path fill="#fff" d="M146 130h14v2h-14z"/>
    <path fill="#000" fill-opacity=".1" d="M146 132h14v1h-14z"/>
    <path fill="#637482" d="M148 112h12v1h-12z"/>
    <path d="M160 112v2h-11l-2-2h13z" fill="#000" fill-opacity=".3"/>
    <path fill="#FFEAC2" d="M149 117h10v12h-10z"/>
    <path fill="#FFD99E" d="M149 113h10v12h-10z"/>
    <path fill="#FEDADA" d="M158 130h2v2h-2z"/>
    <path d="m109.44 119.82 2.62-5.299 2.62 5.299" stroke="#157EB4" stroke-width=".26" stroke-miterlimit="10"/>
    <path d="M114.61 120a2.55 2.55 0 0 1-5.1 0h5.1z" fill="#97A4AF"/>
    <path d="M112.06 114.52V109" stroke="#157EB4" stroke-width=".26" stroke-miterlimit="10"/>
    <rect x="109" y="119" width="6" height="1" rx=".5" fill="#465864"/>
    <path d="M110 119a1 1 0 0 1 2 0h-2zM112 119a1 1 0 0 1 2 0h-2z" fill="#FFC5D1"/>
    <path d="M111 118a1 1 0 0 1 2 0v1h-2v-1z" fill="#FFC5D1"/>
    <path fill-rule="evenodd" clip-rule="evenodd" d="m140 54-1-1h110l-1 1H140zm2 2-1-1h106l-1 1H142zm2 2-1-1h102l-1 1H144zm2 2-1-1h98l-1 1h-96zm2 2-1-1h94l-1 1h-92zm2 2-1-1h90l-1 1h-88zm2 2-1-1h86l-1 1h-84zm2 2-1-1h82l-1 1h-80zm2 2-1-1h78l-1 1h-76zm2 2-1-1h74l-1 1h-72zm2 2-1-1h70l-1 1h-68zm2 2-1-1h66l-1 1h-64zm2 2-1-1h62l-1 1h-60zm2 2-1-1h58l-1 1h-56z" fill="#000" fill-opacity=".1"/>
    <path fill="#971B36" d="M42 100h2v50h-2z"/>
    <path fill="#6A1326" d="M55 105h1v3h-1z"/>
    <path fill="#A4D8F3" d="M47 108h35v25H47z"/>
    <path d="M55.347 119v-6.545h4.602v1.432h-2.825v1.125h2.544v1.431h-2.544V119h-1.777zM67.303 115.727c0 .729-.141 1.344-.425 1.845a2.856 2.856 0 0 1-1.147 1.134 3.377 3.377 0 0 1-1.61.384 3.37 3.37 0 0 1-1.618-.387c-.48-.26-.86-.639-1.144-1.138-.281-.501-.422-1.113-.422-1.838 0-.728.14-1.342.422-1.84a2.833 2.833 0 0 1 1.144-1.135 3.37 3.37 0 0 1 1.617-.387c.593 0 1.13.129 1.611.387.482.256.864.634 1.147 1.135.284.498.425 1.112.425 1.84zm-1.828 0c0-.392-.052-.722-.156-.99a1.255 1.255 0 0 0-.457-.614c-.2-.141-.448-.211-.742-.211s-.542.07-.745.211c-.2.139-.352.343-.456.614-.103.268-.154.598-.154.99s.051.724.154.994a1.3 1.3 0 0 0 .457.614c.202.139.45.208.744.208s.541-.069.742-.208c.202-.141.354-.345.457-.614.104-.27.156-.602.156-.994zM68.486 119v-6.545h2.825c.486 0 .91.088 1.275.265.365.177.648.431.85.764.203.332.304.731.304 1.195 0 .469-.105.864-.313 1.186a1.923 1.923 0 0 1-.873.729c-.373.164-.808.246-1.307.246h-1.688v-1.381h1.33c.209 0 .387-.026.534-.077a.673.673 0 0 0 .342-.252.766.766 0 0 0 .121-.451c0-.187-.04-.34-.121-.457a.678.678 0 0 0-.342-.262 1.479 1.479 0 0 0-.534-.086h-.626V119h-1.777zm3.835-3.004L73.957 119h-1.93l-1.598-3.004h1.892zM56.09 123.5a.689.689 0 0 0-.24-.498c-.141-.12-.355-.179-.643-.179-.183 0-.333.022-.45.067a.535.535 0 0 0-.256.176.43.43 0 0 0-.087.255.42.42 0 0 0 .042.214.516.516 0 0 0 .16.17c.072.049.165.093.278.134.113.04.247.077.403.109l.537.115c.362.076.672.178.93.303.257.126.468.274.632.445.164.168.285.358.361.568.08.211.12.441.122.691-.002.43-.11.795-.323 1.093-.213.298-.518.525-.914.681-.394.155-.868.233-1.422.233-.57 0-1.066-.084-1.49-.253a2.076 2.076 0 0 1-.984-.776c-.232-.352-.35-.801-.352-1.349h1.688c.01.2.06.369.15.505s.215.24.377.31c.164.07.36.105.585.105.19 0 .349-.023.476-.07a.645.645 0 0 0 .291-.195.46.46 0 0 0 .103-.284.403.403 0 0 0-.1-.262.769.769 0 0 0-.306-.205 3.231 3.231 0 0 0-.579-.172l-.652-.141c-.58-.126-1.036-.336-1.37-.63-.333-.296-.498-.7-.496-1.211a1.803 1.803 0 0 1 .332-1.09c.226-.313.538-.557.937-.732.4-.174.86-.262 1.377-.262.528 0 .986.089 1.371.266.386.176.683.426.892.747.21.32.317.694.32 1.122h-1.7zM60.36 128h-1.917l2.16-6.545h2.43l2.16 6.545h-1.918l-1.432-4.743h-.05L60.36 128zm-.358-2.582h3.605v1.329h-3.605v-1.329zM66.183 128v-6.545h1.777v5.113h2.646V128h-4.423zM71.685 128v-6.545h4.717v1.432h-2.94v1.125h2.697v1.431h-2.697v1.125h2.927V128h-4.704z" fill="#fff"/>
    <path fill-rule="evenodd" clip-rule="evenodd" d="M82 120.158 59.756 133H47v-10.925L71.378 108H82v12.158z" fill="#E71442"/>
    <path d="M56.18 124.05a.686.686 0 0 0-.457-.311c-.181-.034-.396.022-.645.166a1.274 1.274 0 0 0-.357.283.545.545 0 0 0-.134.28.434.434 0 0 0 .053.265.42.42 0 0 0 .143.164.51.51 0 0 0 .224.067c.087.006.19-.001.307-.023.118-.021.253-.057.404-.107l.522-.169c.352-.114.671-.182.957-.202.286-.02.543.003.77.069.227.063.426.167.598.312.173.143.324.322.45.537.213.374.302.743.267 1.108-.035.365-.186.714-.451 1.046-.264.332-.636.637-1.115.914-.493.284-.965.459-1.416.526-.45.065-.863.005-1.241-.181-.377-.188-.703-.519-.979-.992l1.461-.844c.11.168.237.289.383.362.146.074.306.1.482.08.177-.021.363-.088.559-.201.164-.095.29-.194.377-.299a.64.64 0 0 0 .154-.314.458.458 0 0 0-.053-.297.405.405 0 0 0-.217-.178.783.783 0 0 0-.368-.024c-.154.018-.35.065-.587.14l-.635.204c-.565.181-1.066.228-1.502.141-.436-.091-.781-.358-1.035-.802a1.798 1.798 0 0 1-.257-1.11c.039-.384.187-.751.445-1.102a3.41 3.41 0 0 1 1.062-.915c.457-.265.897-.417 1.32-.456.422-.04.804.027 1.146.202.343.171.622.441.838.811l-1.473.85zM64.732 120.53c.365.631.55 1.234.554 1.81a2.853 2.853 0 0 1-.426 1.556 3.38 3.38 0 0 1-1.203 1.137 3.359 3.359 0 0 1-1.594.474 2.877 2.877 0 0 1-1.56-.413c-.494-.293-.922-.753-1.284-1.381-.364-.631-.55-1.233-.555-1.805a2.834 2.834 0 0 1 .423-1.555c.288-.464.69-.845 1.207-1.143a3.366 3.366 0 0 1 1.589-.471 2.829 2.829 0 0 1 1.56.409c.495.29.925.751 1.29 1.382zm-1.583.914c-.196-.339-.406-.599-.63-.78a1.256 1.256 0 0 0-.703-.303 1.263 1.263 0 0 0-.748.188 1.273 1.273 0 0 0-.54.555 1.28 1.28 0 0 0-.088.76c.045.284.166.596.362.935.196.34.406.601.63.784.224.181.459.282.703.303.244.019.494-.045.748-.192.255-.147.434-.331.538-.551.105-.223.135-.476.09-.76-.045-.286-.166-.599-.362-.939zM67.392 122.773l-3.272-5.668 1.539-.889 2.556 4.429 2.292-1.323.716 1.239-3.83 2.212zM74.338 118.763l-2.181 1.259-3.273-5.668 2.16-1.247c.582-.336 1.152-.514 1.707-.532a2.702 2.702 0 0 1 1.548.406c.476.288.885.727 1.226 1.318.34.59.518 1.164.533 1.722a2.74 2.74 0 0 1-.418 1.54c-.292.469-.726.87-1.302 1.202zm-1.396-.936.587-.338c.28-.162.493-.345.638-.55.147-.205.208-.449.184-.73-.023-.282-.148-.62-.376-1.015-.228-.395-.46-.672-.694-.832a1.06 1.06 0 0 0-.735-.199c-.256.026-.53.125-.826.296l-.543.313 1.765 3.055z" fill="#fff"/>
    <path fill="#000" fill-opacity=".1" d="M47 108h2v25h-2z"/>
    <path fill="#6A1326" d="M73 105h1v3h-1z"/>
    <rect x="39" y="103" width="45" height="2" rx="1" fill="#BA3552"/>
    <path fill-rule="evenodd" clip-rule="evenodd" d="M44 101.732a1.983 1.983 0 0 1-1 .268c-.364 0-.706-.097-1-.268V100h2v1.732z" fill="#000" fill-opacity=".3"/>
    <path fill="#000" fill-opacity=".3" d="M42 105h2v2h-2z"/>
    <rect x="41" y="97" width="4" height="4" rx="2" fill="#BA3552"/>
</svg>
