<svg width="350" height="154" viewBox="0 0 350 154" fill="none" xmlns="http://www.w3.org/2000/svg">
    <path fill="#F1F9FD" d="M0 0h350v154H0z"/>
    <path d="M119.54 41.26a4.687 4.687 0 0 0-.917-2.427 4.509 4.509 0 0 0-2.05-1.533 4.392 4.392 0 0 0-2.533-.15c-.841.2-1.608.643-2.21 1.278a13.383 13.383 0 0 0-3-7.697c-1.5-1.308-7.92-4.818-15 4.618-1.035-5.726-9.24-4.079-11.775 2.633-6-1.016-10.05 1.539-11.055 5.018h54c-.54-1.77-3.315-2.77-5.46-1.74z" fill="#fff"/>
    <path opacity=".5" d="M154.227 105.286c-.098 2.768-.198 5.609 1.609 8.116 4.396 6.098 4.875 10.372 3.439 13.633-1.473 3.341-10.23 5.759-18.203 6.2l.859 10.743h-6.828l.859-10.743c-7.973-.441-16.731-2.859-18.203-6.2-1.437-3.261-.957-7.535 3.439-13.633 1.807-2.507 1.707-5.348 1.609-8.116-.074-2.106-.147-4.169.623-6.011.988-2.364 1.881-3.483 2.756-4.58.762-.955 1.511-1.894 2.299-3.621.752-1.65.433-3.66.11-5.705-.334-2.106-.674-4.248.146-6.071 1.042-2.317 1.93-3.435 2.685-4.385.95-1.196 1.688-2.124 2.252-4.849.567-2.74 3.247-7.064 4.839-7.064 1.591 0 4.272 4.325 4.839 7.064.564 2.725 1.301 3.653 2.252 4.85.754.949 1.643 2.067 2.685 4.384.819 1.823.48 3.965.146 6.071-.324 2.044-.642 4.054.11 5.705.788 1.727 1.537 2.665 2.298 3.62.876 1.098 1.769 2.217 2.757 4.58.77 1.843.697 3.906.623 6.012z" fill="#C8E6F9"/>
    <path opacity=".5" d="M119.921 106.982C119.044 92.046 107.931 77 101.256 77c-6.675 0-17.788 15.046-18.665 29.982-.949 16.158 6.752 23.484 17.13 24.13l-.449 12.451h3.967l-.449-12.451c10.379-.646 18.079-7.972 17.131-24.13z" fill="#C8E6F9"/>
    <path opacity=".5" fill-rule="evenodd" clip-rule="evenodd" d="M296.579 72.376c.219-.022.441-.033.665-.033 3.597 0 6.513 2.905 6.513 6.489a6.477 6.477 0 0 1-2.935 5.423 5.748 5.748 0 0 1 2.382 4.661c3.194 0 5.784 2.58 5.784 5.762a5.76 5.76 0 0 1-3.095 5.104 5.135 5.135 0 0 1 2.037 4.097c0 2.845-2.314 5.15-5.169 5.15a5.148 5.148 0 0 1-2.776-.807l-8.914 12.775.523 23.003h-3.852l.713-31.369-2.047-2.934a8.47 8.47 0 0 1-5.34 1.885 8.497 8.497 0 0 1-7.511-4.511l-.036.029c-.014.011-.027.023-.042.033-2.991 2.157-7.17 1.489-9.335-1.491a6.642 6.642 0 0 1 1.396-9.22 4.611 4.611 0 0 1-.646-2.353c0-2.464 1.923-4.474 4.354-4.635a7.688 7.688 0 0 1 4.776-5.761 6.461 6.461 0 0 1-.331-2.05c0-2.89 1.896-5.335 4.516-6.175a3.603 3.603 0 0 1-.016-.314 3.704 3.704 0 0 1 5.647-3.149A6.504 6.504 0 0 1 290.169 67a6.503 6.503 0 0 1 6.41 5.376zm-9.292 36.502 1.217 1.614.053-2.332a5.611 5.611 0 0 1-.506-.227 8.575 8.575 0 0 1-.764.945zm3.731 9.758-.23-10.117c.16-.008.318-.023.474-.045a5.645 5.645 0 0 0 4.146 1.805c.806 0 1.571-.168 2.264-.472l-6.654 8.829z" fill="#C8E6F9"/>
    <path fill="#B9DEF3" d="M252 31h28v113h-28z"/>
    <path fill="#fff" d="M141 31h111v113H141z"/>
    <path fill="#157EB4" d="M139 28h115v3H139z"/>
    <path fill="#E4F2FA" d="M141 31h111v1H141z"/>
    <path fill="#000" fill-opacity=".1" d="M252 31h28v1h-28z"/>
    <path fill="#E4F2FA" d="M204 76h-13v21h13z"/>
    <path fill="#fff" d="M188 98h15v2h-15z"/>
    <path fill="#000" fill-opacity=".1" d="M188 100h17v1h-17z"/>
    <path fill="#BFE4FF" d="M203 98h2v2h-2zM189 75h1v23h-1z"/>
    <path stroke="#637482" d="M190.5 75.5h14v22h-14z"/>
    <path fill="#B3DAF6" d="M204 76h-13v16h13z"/>
    <path fill="#000" fill-opacity=".3" d="M205 75v2h-15v-2z"/>
    <path fill="#E4F2FA" d="M204 111h-5v16h5z"/>
    <path fill="#fff" d="M196 128h9v2h-9z"/>
    <path fill="#000" fill-opacity=".1" d="M196 130h9v1h-9z"/>
    <path fill="#BFE4FF" d="M205 128h2v2h-2zM197 110h1v18h-1z"/>
    <path stroke="#637482" d="M198.5 110.5h6v17h-6z"/>
    <path fill="#B3DAF6" d="M204 111h-5v11h5z"/>
    <path fill="#000" fill-opacity=".3" d="M205 110v2h-7v-2z"/>
    <path fill="#FFEAC2" d="M204 42h-13v21h13z"/>
    <path fill="#fff" d="M188 64h15v2h-15z"/>
    <path fill="#000" fill-opacity=".1" d="M188 66h17v1h-17z"/>
    <path fill="#BFE4FF" d="M203 64h2v2h-2zM189 41h1v23h-1z"/>
    <path stroke="#637482" d="M190.5 41.5h14v22h-14z"/>
    <path fill="#FFDBA0" d="M204 42h-13v10h13z"/>
    <path fill="#000" fill-opacity=".3" d="M205 41v2h-15v-2z"/>
    <path fill="#FFEAC2" d="M231 76h-13v21h13z"/>
    <path fill="#E9EDF0" d="M246 76h-14v21h14z"/>
    <path fill="#fff" d="M215 98h30v2h-30z"/>
    <path fill="#000" fill-opacity=".1" d="M215 100h32v1h-32z"/>
    <path fill="#BFE4FF" d="M245 98h2v2h-2zM216 75h1v23h-1z"/>
    <path stroke="#637482" d="M217.5 75.5h29v22h-29z"/>
    <path fill="#637482" d="M231 76h1v21h-1z"/>
    <path fill="#FFDBA0" d="M231 76h-13v5h13z"/>
    <path fill="#FFEAC2" d="M246 76h-14v21h14z"/>
    <path fill="#FFDBA0" d="M246 76h-14v5h14z"/>
    <path fill="#000" fill-opacity=".3" d="M247 75v2h-30v-2z"/>
    <path fill="#E4F2FA" d="M231 42h-13v21h13zM246 42h-14v21h14z"/>
    <path fill="#fff" d="M215 64h30v2h-30z"/>
    <path fill="#000" fill-opacity=".1" d="M215 66h32v1h-32z"/>
    <path fill="#BFE4FF" d="M245 64h2v2h-2zM216 41h1v23h-1z"/>
    <path stroke="#637482" d="M217.5 41.5h29v22h-29z"/>
    <path fill="#637482" d="M231 42h1v21h-1z"/>
    <path fill="#B3DAF6" d="M231 42h-13v16h13zM246 42h-14v8h14z"/>
    <path fill="#000" fill-opacity=".3" d="M247 41v2h-30v-2z"/>
    <path fill="#E4F2FA" d="M161 76h-13v21h13zM176 76h-14v21h14z"/>
    <path fill="#fff" d="M145 98h30v2h-30z"/>
    <path fill="#000" fill-opacity=".1" d="M145 100h32v1h-32z"/>
    <path fill="#BFE4FF" d="M175 98h2v2h-2zM146 75h1v23h-1z"/>
    <path stroke="#637482" d="M147.5 75.5h29v22h-29z"/>
    <path fill="#637482" d="M161 76h1v21h-1z"/>
    <path fill="#B3DAF6" d="M161 76h-13v5h13zM176 76h-14v18h14z"/>
    <path d="M177 75v2h-30l-1-2h31z" fill="#000" fill-opacity=".3"/>
    <path fill="#E4F2FA" d="M161 42h-13v21h13zM176 42h-14v21h14z"/>
    <path fill="#fff" d="M145 64h30v2h-30z"/>
    <path fill="#000" fill-opacity=".1" d="M145 66h32v1h-32z"/>
    <path fill="#BFE4FF" d="M175 64h2v2h-2zM146 41h1v23h-1z"/>
    <path stroke="#637482" d="M147.5 41.5h29v22h-29z"/>
    <path fill="#637482" d="M161 42h1v21h-1z"/>
    <path fill="#B3DAF6" d="M161 42h-13v17h13zM176 42h-14v13h14z"/>
    <path d="M177 41v2h-30l-1-2h31z" fill="#000" fill-opacity=".3"/>
    <path fill="#fff" d="M145 108h43v2h-43z"/>
    <path fill="#BFE4FF" d="M188 108h2v2h-2z"/>
    <path fill="#B9CAD2" d="M149 110h39v34h-39z"/>
    <path fill="#000" fill-opacity=".1" d="M149 112h39v1h-39zM149 115h39v1h-39zM149 118h39v1h-39zM149 121h39v1h-39zM149 124h39v1h-39zM149 127h39v1h-39zM149 130h39v1h-39zM149 133h39v1h-39zM149 136h39v1h-39zM149 139h39v1h-39zM149 142h39v1h-39z"/>
    <path fill="#A1AFB6" d="M147 110h2v34h-2z"/>
    <path d="M188 110v3h-38.899L147 110h41z" fill="#000" fill-opacity=".15"/>
    <path fill="#fff" d="M274 44h2v7h-2z"/>
    <path fill="#D6E3E9" d="M276 44h6v7h-6z"/>
    <ellipse cx="279.5" cy="47.5" rx="1.5" ry="2.5" fill="#637482"/>
    <path fill="#000" fill-opacity=".1" d="M274 51h6v1h-6z"/>
    <path fill="#fff" d="M274 79h2v7h-2z"/>
    <path fill="#D6E3E9" d="M276 79h6v7h-6z"/>
    <ellipse cx="279.5" cy="82.5" rx="1.5" ry="2.5" fill="#637482"/>
    <path fill="#000" fill-opacity=".1" d="M274 86h6v1h-6z"/>
    <path fill="#fff" d="M266 44h2v7h-2z"/>
    <path fill="#D6E3E9" d="M268 44h6v7h-6z"/>
    <ellipse cx="271.5" cy="47.5" rx="1.5" ry="2.5" fill="#637482"/>
    <path fill="#000" fill-opacity=".1" d="M266 51h8v1h-8z"/>
    <path fill="#fff" d="M266 79h2v7h-2z"/>
    <path fill="#D6E3E9" d="M268 79h6v7h-6z"/>
    <ellipse cx="271.5" cy="82.5" rx="1.5" ry="2.5" fill="#637482"/>
    <path fill="#000" fill-opacity=".1" d="M266 86h8v1h-8z"/>
    <path fill="#202E37" d="M254 28h28v3h-28z"/>
    <path fill="#637482" d="M264 109h5v1h-5z"/>
    <path fill="#B3DAF6" d="M264 110h5v17h-5z"/>
    <path fill="#9BCFEC" d="M264 110h5v11h-5z"/>
    <path fill="#637482" d="M263 109h1v19h-1zM269 109h1v19h-1z"/>
    <path fill="#CBE6F7" d="M270 109h1v19h-1z"/>
    <path fill="#637482" d="M264 127h5v1h-5z"/>
    <path fill="#000" fill-opacity=".3" d="M263 109h7v2h-7z"/>
    <path d="M185 144a2 2 0 0 1 2-2h35a2 2 0 0 1 2 2h-39z" fill="#B9DEF3"/>
    <circle cx="206" cy="141" r="3" fill="#B9DEF3"/>
    <circle cx="210.5" cy="139.5" r="4.5" fill="#B9DEF3"/>
    <circle cx="215.5" cy="140.5" r="3.5" fill="#B9DEF3"/>
    <circle cx="218.5" cy="141.5" r="2.5" fill="#B9DEF3"/>
    <path d="M201 144a2 2 0 0 1 2-2h19a2 2 0 0 1 2 2h-23z" fill="#B9DEF3"/>
    <circle cx="198" cy="142" r="2" fill="#B9DEF3"/>
    <circle cx="189" cy="141" r="2" fill="#B9DEF3"/>
    <circle cx="193.5" cy="140.5" r="3.5" fill="#B9DEF3"/>
    <path fill="#157EB4" d="M224 110h16v30h-16z"/>
    <path fill="#BFE4FF" d="M222 110h2v30h-2z"/>
    <path fill="#fff" d="M220 108h18v2h-18zM221 140h17v2h-17zM219 142h17v2h-17z"/>
    <path fill="#D6E3E9" d="M238 140h2v2h-2z"/>
    <path fill="#BFE4FF" d="M238 108h2v2h-2z"/>
    <path fill="#D6E3E9" d="M236 142h4v2h-4z"/>
    <path fill="#FFD88E" d="M227 114h2v8h-2zM231 114h2v8h-2zM235 114h2v8h-2z"/>
    <path d="M240 110v2h-16l-2-2h18z" fill="#000" fill-opacity=".3"/>
    <path d="m66 108-15 15v21h62v-36H66z" fill="#FFEAC2"/>
    <path d="M76.827 123v-8.727h3.605c.654 0 1.218.118 1.692.353.477.233.845.569 1.104 1.006.258.435.388.95.388 1.547 0 .605-.132 1.119-.397 1.543-.264.42-.639.741-1.125.963-.485.218-1.06.328-1.726.328h-2.28v-1.662h1.888c.319 0 .584-.041.797-.124.216-.085.38-.213.49-.383.111-.174.166-.395.166-.665s-.055-.493-.166-.669a1 1 0 0 0-.49-.401 2.055 2.055 0 0 0-.797-.136h-1.04V123h-2.109zm4.914-3.989L83.914 123h-2.301l-2.13-3.989h2.258zM85.252 123v-8.727h6.086v1.713h-3.976v1.79h3.665v1.717h-3.665v1.794h3.976V123h-6.085zm15.314-8.727V123h-1.79l-3.472-5.037h-.056V123h-2.11v-8.727h1.816l3.435 5.028h.072v-5.028h2.105zm1.521 1.713v-1.713h7.377v1.713h-2.647V123h-2.079v-7.014h-2.651z" fill="#30414D"/>
    <path fill="#FFD88E" d="M51 143h62v1H51z"/>
    <path fill="#BE7E00" d="M113 143h21v1h-21z"/>
    <path fill="#FFD88E" d="M113 108h21v35h-21zM51 127h23v1H51z"/>
    <path fill="#FFD88E" d="M73 112h1v32h-1zM58 127h1v13h-1z"/>
    <path d="M58 128h13v-17h-5l-8 8v9z" fill="#B3DAF6"/>
    <path fill="#FFD88E" d="M71 111h3v1h-3z"/>
    <rect x="55" y="120" width="2" height="6" rx="1" fill="#30414D"/>
    <path fill="#C8E6F9" d="M51 130h2v5h-2z"/>
    <path fill="#DE7685" d="M110 129h3v5h-3z"/>
    <path fill="#E71442" d="M113 129h2v5h-2zM133 129h1v5h-1z"/>
    <path fill="#97A4AF" d="M55 130h2v1h-2z"/>
    <path fill="#FCB529" d="M116 111h15v32h-15z"/>
    <path fill="#157EB4" d="M116 111h15v12h-15z"/>
    <path fill="#FFEAC2" d="M131 111h1v32h-1z"/>
    <path fill="#000" fill-opacity=".3" d="M116 121h15v1h-15zM116 119h15v1h-15zM116 117h15v1h-15zM116 115h15v1h-15zM116 113h15v1h-15zM116 111h15v1h-15z"/>
    <path fill="#CFD8DE" d="M122 121h3v1h-3z"/>
    <path fill="#157EB4" d="M51 133h1v1h-1z"/>
    <path fill="#E71442" d="M111 132h2v1h-2z"/>
    <path fill="#FFD88E" d="M58 127h13v1H58z"/>
    <path d="m116 138.827 15-15V123h-15v15.827z" fill="#000" fill-opacity=".1"/>
    <path d="M69.984 144a7.5 7.5 0 1 0-14.967 0h14.967z" fill="#FFDBA0"/>
    <circle cx="62.5" cy="143.5" fill="#30414D" r="6.5"/>
    <path d="M62.455 148.5a5 5 0 1 0 0-10 5 5 0 0 0 0 10z" stroke="#637482"/>
    <circle cx="62.5" cy="143.5" r="2.5" fill="#E9EDF0"/>
    <path d="M74 144a6.252 6.252 0 0 0 12.25 0H74z" fill="#30414D"/>
    <path d="M111.984 144a7.5 7.5 0 1 0-14.968 0h14.968z" fill="#FFDBA0"/>
    <circle cx="104.5" cy="143.5" fill="#30414D" r="6.5"/>
    <path d="M104.455 148.5a5 5 0 1 0 0-10 5 5 0 0 0 0 10z" stroke="#637482"/>
    <circle cx="104.5" cy="143.5" r="2.5" fill="#E9EDF0"/>
    <path d="M116 144a6.252 6.252 0 0 0 12.25 0H116z" fill="#30414D"/>
    <path fill="#E71442" d="M74 108h39v20H74z"/>
    <path d="M80.022 122v-7.272h3.005c.544 0 1.014.098 1.41.294.397.194.704.474.92.838.215.363.322.792.322 1.289 0 .505-.11.933-.33 1.286-.22.35-.532.618-.937.802-.405.183-.885.274-1.439.274h-1.9v-1.385h1.574c.265 0 .486-.034.664-.103a.836.836 0 0 0 .408-.32 1.01 1.01 0 0 0 .139-.554c0-.224-.047-.41-.139-.557a.833.833 0 0 0-.408-.334 1.709 1.709 0 0 0-.664-.114h-.867V122h-1.758zm4.095-3.324L85.928 122H84.01l-1.775-3.324h1.882zM87.044 122v-7.272h5.07v1.427h-3.313v1.492h3.054v1.431h-3.054v1.495h3.314V122h-5.071zM99.805 114.728V122h-1.491l-2.895-4.197h-.046V122h-1.758v-7.272h1.513l2.862 4.19h.06v-4.19h1.755zM101.072 116.155v-1.427h6.147v1.427h-2.205V122h-1.733v-5.845h-2.209z" fill="#fff"/>
    <path d="M257.074 140.108a2.5 2.5 0 0 1 4.021-2.533 4.502 4.502 0 0 1 8.267-1.386 3.5 3.5 0 0 1 4.603 3.811H274a4 4 0 0 1 4 4h-24a4 4 0 0 1 3.074-3.892z" fill="#9BCFEC"/>
    <path d="M290.95 140a2.502 2.502 0 0 0-2.284-1.995 3.502 3.502 0 0 0-5.916-.67 2.5 2.5 0 0 0-3.7 2.665H278a4 4 0 0 0-4 4h21a4 4 0 0 0-4-4h-.05z" fill="#9BCFEC"/>
    <path fill="#FFD88E" d="M138 140h10v10h-10z"/>
    <path fill="#FCB529" d="M151 145h10v5h-10z"/>
    <path fill="#FFD88E" d="M151 140h8v5h-8z"/>
    <path fill="#FCB529" d="M142 133h7v7h-7z"/>
    <path fill="#BE7E00" d="M148 140h3v10h-3zM161 145h3v5h-3zM159 140h2v5h-2zM149 133h3v7h-3z"/>
    <path d="M143 145.333 141.667 144l-1.334 1.333h1v1.334H142v-1.334h1zM146 147.5v.5h-6v-.5h6zM144.667 145.333h1L144.333 144 143 145.333h1v1.334h.667v-1.334z" fill="#E49254"/>
    <path fill="#A4CDEB" d="M61 123h12v4H61z"/>
    <path d="M63.337 125a3.5 3.5 0 1 1 6.326 0H68.5a2.5 2.5 0 1 0-4 0h-1.163z" fill="#A4CDEB"/>
    <rect x="71" y="113" width="1" height="4" rx=".5" transform="rotate(90 71 113)" fill="#A4CDEB"/>
    <path d="M61 127h-1v-8l8-8h5v1h-4.5l-7.5 7.5v7.5z" fill="#157EB4"/>
</svg>
